<svg width="1600" height="900" viewBox="0 0 1600 900" fill="none" xmlns="http://www.w3.org/2000/svg">
  <defs>
    <linearGradient id="bg" x1="90" y1="40" x2="1510" y2="860" gradientUnits="userSpaceOnUse">
      <stop stop-color="#7C87F7"/>
      <stop offset="0.48" stop-color="#AE61E9"/>
      <stop offset="1" stop-color="#F08AB0"/>
    </linearGradient>
    <linearGradient id="cardFade" x1="0" y1="180" x2="0" y2="360" gradientUnits="userSpaceOnUse">
      <stop stop-color="#000000" stop-opacity="0"/>
      <stop offset="1" stop-color="#000000" stop-opacity="0.58"/>
    </linearGradient>
    <filter id="shadow" x="40" y="60" width="1520" height="820" filterUnits="userSpaceOnUse" color-interpolation-filters="sRGB">
      <feDropShadow dx="0" dy="18" stdDeviation="24" flood-color="#51346D" flood-opacity="0.16"/>
    </filter>
  </defs>

  <rect width="1600" height="900" fill="url(#bg)"/>

  <g filter="url(#shadow)">
    <rect x="72" y="78" width="1456" height="740" rx="18" fill="#F8F8F8"/>
    <path d="M72 96C72 86.0589 80.0589 78 90 78H1510C1519.94 78 1528 86.0589 1528 96V128H72V96Z" fill="#F8F8F8"/>
    <circle cx="104" cy="108" r="9" fill="#D7D7D7"/>
    <circle cx="132" cy="108" r="9" fill="#D7D7D7"/>
    <circle cx="160" cy="108" r="9" fill="#D7D7D7"/>

    <rect x="770" y="87" width="108" height="34" rx="10" fill="white" stroke="#D3D3D3"/>
    <text x="824" y="109" text-anchor="middle" fill="#2B2B2B" font-size="20" font-family="ui-sans-serif, -apple-system, BlinkMacSystemFont, 'SF Pro Display', sans-serif">Add Images</text>
    <rect x="888" y="87" width="68" height="34" rx="10" fill="white" stroke="#D3D3D3"/>
    <text x="922" y="109" text-anchor="middle" fill="#2B2B2B" font-size="20" font-family="ui-sans-serif, -apple-system, BlinkMacSystemFont, 'SF Pro Display', sans-serif">Clear</text>

    <rect x="996" y="78" width="532" height="740" fill="#F8F8F8"/>
    <line x1="996" y1="78" x2="996" y2="818" stroke="#DFDFDF"/>

    <g font-family="ui-sans-serif, -apple-system, BlinkMacSystemFont, 'SF Pro Display', sans-serif" fill="#2A2A2A">
      <text x="1028" y="122" font-size="22" font-weight="700">Format</text>
      <text x="1028" y="164" font-size="15" fill="#6D6D6D">Format</text>
      <rect x="1028" y="178" width="468" height="36" rx="9" fill="white" stroke="#D7D7D7"/>
      <text x="1042" y="202" font-size="18">WebP</text>
      <text x="1472" y="202" font-size="18">v</text>

      <text x="1028" y="252" font-size="15" fill="#6D6D6D">Compression</text>
      <rect x="1162" y="232" width="204" height="34" rx="10" fill="#EFEFEF" stroke="#D7D7D7"/>
      <rect x="1162" y="232" width="102" height="34" rx="10" fill="white" stroke="#D7D7D7"/>
      <text x="1213" y="255" text-anchor="middle" font-size="17">Lossy</text>
      <text x="1315" y="255" text-anchor="middle" font-size="17" fill="#5E5E5E">Lossless</text>

      <text x="1028" y="320" font-size="15" fill="#6D6D6D">Quality</text>
      <text x="1498" y="320" font-size="16" text-anchor="end">21%</text>
      <rect x="1028" y="344" width="468" height="6" rx="3" fill="#E1E1E1"/>
      <rect x="1085" y="337" width="28" height="28" rx="14" fill="white" stroke="#D4D4D4"/>

      <line x1="996" y1="390" x2="1528" y2="390" stroke="#DFDFDF"/>
      <text x="1028" y="448" font-size="22" font-weight="700">Resize</text>
      <text x="1028" y="498" font-size="15" fill="#6D6D6D">Mode</text>
      <rect x="1028" y="512" width="468" height="36" rx="9" fill="white" stroke="#D7D7D7"/>
      <text x="1042" y="536" font-size="18">None</text>
      <text x="1472" y="536" font-size="18">v</text>

      <line x1="996" y1="590" x2="1528" y2="590" stroke="#DFDFDF"/>
      <text x="1028" y="648" font-size="22" font-weight="700">Output</text>
      <text x="1028" y="690" font-size="15">Downloads</text>
      <rect x="1348" y="664" width="148" height="34" rx="10" fill="white" stroke="#D3D3D3"/>
      <text x="1422" y="686" text-anchor="middle" font-size="18">Select Folder</text>
      <text x="1028" y="714" font-size="15" fill="#6D6D6D">Suffix</text>
      <rect x="1028" y="728" width="468" height="32" rx="8" fill="white" stroke="#D7D7D7"/>
      <text x="1044" y="750" font-size="16" fill="#B3B3B3">-optimized</text>

      <rect x="1028" y="772" width="468" height="40" rx="12" fill="white" stroke="#D6D6D6"/>
      <text x="1262" y="798" text-anchor="middle" font-size="22">Export Batch</text>
    </g>

    <g font-family="ui-sans-serif, -apple-system, BlinkMacSystemFont, 'SF Pro Display', sans-serif">
      <g transform="translate(108 180)">
        <rect width="300" height="204" rx="20" fill="#93B883"/>
        <rect width="300" height="204" rx="20" fill="url(#cardFade)"/>
        <rect x="18" y="18" width="62" height="34" rx="17" fill="#E7ECEE" fill-opacity="0.88"/>
        <text x="49" y="40" text-anchor="middle" fill="#4D5E69" font-size="16" font-weight="700">Done</text>
        <circle cx="260" cy="36" r="18" fill="#F0F0F0" fill-opacity="0.9"/>
        <text x="260" y="43" text-anchor="middle" fill="#5C5C5C" font-size="22">×</text>
        <text x="24" y="134" fill="white" font-size="17" font-weight="700">landing-bg-back.webp</text>
        <text x="24" y="160" fill="#F0F0F0" font-size="14">2.304 x 1.536</text>
        <text x="24" y="186" fill="#E5E5E5" font-size="14">WebP - 333 KB - 65% smaller</text>
      </g>

      <g transform="translate(434 180)">
        <rect width="300" height="204" rx="20" fill="#6E594B"/>
        <rect width="300" height="204" rx="20" fill="url(#cardFade)"/>
        <rect x="18" y="18" width="92" height="34" rx="17" fill="#EFE7E2" fill-opacity="0.88"/>
        <text x="64" y="40" text-anchor="middle" fill="#4F4138" font-size="16" font-weight="700">Pending</text>
        <circle cx="260" cy="36" r="18" fill="#F0F0F0" fill-opacity="0.9"/>
        <text x="260" y="43" text-anchor="middle" fill="#5C5C5C" font-size="22">×</text>
        <text x="24" y="134" fill="white" font-size="17" font-weight="700">ersin-olgun...unsplash.jpg</text>
        <text x="24" y="160" fill="#F0F0F0" font-size="14">4.672 x 7.008</text>
        <text x="24" y="186" fill="#E5E5E5" font-size="14">JPEG - 3.5 MB</text>
      </g>

      <g transform="translate(760 180)">
        <rect width="300" height="204" rx="20" fill="#8B7163"/>
        <rect width="300" height="204" rx="20" fill="url(#cardFade)"/>
        <rect x="18" y="18" width="92" height="34" rx="17" fill="#EFE7E2" fill-opacity="0.88"/>
        <text x="64" y="40" text-anchor="middle" fill="#4F4138" font-size="16" font-weight="700">Pending</text>
        <circle cx="260" cy="36" r="18" fill="#F0F0F0" fill-opacity="0.9"/>
        <text x="260" y="43" text-anchor="middle" fill="#5C5C5C" font-size="22">×</text>
        <text x="24" y="134" fill="white" font-size="17" font-weight="700">evgeny-mat...unsplash.jpg</text>
        <text x="24" y="160" fill="#F0F0F0" font-size="14">4.732 x 3.701</text>
        <text x="24" y="186" fill="#E5E5E5" font-size="14">JPEG - 1.3 MB</text>
      </g>

      <text x="110" y="792" fill="#707070" font-size="18">3 files    5,1 MB    1 completed</text>
    </g>
  </g>
</svg>
